<svg xmlns="http://www.w3.org/2000/svg" width="18" height="17" viewBox="0 0 18 17">
    <defs>
        <clipPath id="prefix__clip-path">
            <path id="prefix__Rectangle_4027" d="M0 0H18V17H0z" class="prefix__cls-1" data-name="Rectangle 4027" transform="translate(-.397 .198)"/>
        </clipPath>
        <style>
            .prefix__cls-1{fill:#fff}
        </style>
    </defs>
    <g id="prefix__Mask_Group_40" clip-path="url(#prefix__clip-path)" data-name="Mask Group 40" transform="translate(.397 -.198)">
        <path id="prefix__call" d="M16.817 11.117a2.78 2.78 0 0 1-.592-.106 8.34 8.34 0 0 1-1.157-.345 1.767 1.767 0 0 0-2.191.884l-.194.4a10.761 10.761 0 0 1-2.35-1.767A10.761 10.761 0 0 1 8.565 7.83l.371-.247a1.767 1.767 0 0 0 .884-2.192 9.127 9.127 0 0 1-.345-1.157c-.044-.194-.08-.4-.106-.6a2.651 2.651 0 0 0-2.651-2.2h-2.65a2.651 2.651 0 0 0-2.651 3.012 16.787 16.787 0 0 0 14.6 14.543h.336A2.644 2.644 0 0 0 19 16.33v-2.651a2.651 2.651 0 0 0-2.183-2.562zm.442 5.3a.884.884 0 0 1-.3.663.937.937 0 0 1-.724.221 15.02 15.02 0 0 1-13-13.059.963.963 0 0 1 .221-.724.884.884 0 0 1 .663-.3h2.652a.884.884 0 0 1 .884.7q.053.362.133.716A9.825 9.825 0 0 0 8.194 6l-1.237.574a.884.884 0 0 0-.433 1.176 12.8 12.8 0 0 0 6.185 6.185.936.936 0 0 0 1.175-.459l.548-1.237a12.1 12.1 0 0 0 1.4.406q.353.08.716.133a.884.884 0 0 1 .7.884z" class="prefix__cls-1" transform="translate(-1.392 -1.407)"/>
    </g>
</svg>
