<svg xmlns="http://www.w3.org/2000/svg" width="32" height="32" viewBox="0 0 32 32">
    <defs>
        <clipPath id="prefix__clip-path">
            <path id="prefix__Rectangle_4176" fill="#fff" stroke="#707070" d="M0 0H32V32H0z" data-name="Rectangle 4176"/>
        </clipPath>
    </defs>
    <g id="prefix__Mask_Group_100" clip-path="url(#prefix__clip-path)" data-name="Mask Group 100">
        <g id="prefix___Group_" data-name="&lt;Group&gt;" transform="translate(0 .266)">
            <path id="prefix__Path_59821" fill="#12b2fc" d="M12.889 28.679a2.966 2.966 0 1 1-2.966 2.966 2.966 2.966 0 0 1 2.966-2.966zm15.612 0a2.966 2.966 0 1 1-2.965 2.966 2.966 2.966 0 0 1 2.964-2.966z" data-name="Path 59821" transform="translate(-3.646 -3.914)"/>
            <path id="prefix__Path_59822" fill="#00e8b8" d="M34.878 12.355l-3.146 8.565a3.068 3.068 0 0 1-2.881 2.011H11.616l-.155.027-1.819-10.587.091-.015z" data-name="Path 59822" transform="translate(-3.646 -3.914)"/>
            <path id="prefix__Path_59823" fill="#083863" d="M34.878 11.588H10.286L9.57 7.417A3.854 3.854 0 0 0 6.5 4.3l-1.948-.37a.767.767 0 1 0-.282 1.506l1.948.364a2.312 2.312 0 0 1 1.839 1.877l3.519 20.474a3.735 3.735 0 1 0 4.3 1.258h9.638a3.732 3.732 0 1 0 3.059-1.5.765.765 0 0 0-.242-.039H13.085l-.717-4.17h16.483a3.85 3.85 0 0 0 3.6-2.514L35.6 12.62a.767.767 0 0 0-.72-1.032zM12.889 33.843a2.2 2.2 0 1 1 2.2-2.2 2.2 2.2 0 0 1-2.2 2.2zm17.81-2.2a2.2 2.2 0 1 1-2.2-2.2 2.2 2.2 0 0 1 2.2 2.2zm.312-10.99a2.309 2.309 0 0 1-2.16 1.508H12.1l-1.55-9.038h23.229z" data-name="Path 59823" transform="translate(-3.646 -3.914)"/>
        </g>
    </g>
</svg>
