<svg xmlns="http://www.w3.org/2000/svg" width="18" height="18" viewBox="0 0 18 18">
    <defs>
        <clipPath id="prefix__clip-path">
            <path id="prefix__Rectangle_4033" fill="#e1e1e1" d="M0 0H18V18H0z" data-name="Rectangle 4033"/>
        </clipPath>
        <style>
            .prefix__cls-3{fill:#2b2b2b}
        </style>
    </defs>
    <g id="prefix__Mask_Group_45" clip-path="url(#prefix__clip-path)" data-name="Mask Group 45">
        <g id="prefix__change_password" transform="translate(0 1.286)">
            <g id="prefix__Group_50961" data-name="Group 50961" transform="translate(10.709 3.997)">
                <g id="prefix__Group_50960" data-name="Group 50960">
                    <circle id="prefix__Ellipse_417" cx="1.085" cy="1.085" r="1.085" class="prefix__cls-3" data-name="Ellipse 417"/>
                </g>
            </g>
            <g id="prefix__Group_50963" data-name="Group 50963">
                <g id="prefix__Group_50962" data-name="Group 50962">
                    <path id="prefix__Path_47039" d="M16.743 5.55a9.646 9.646 0 0 0-2.08-3.27A9.423 9.423 0 0 0 11.417.241a2.658 2.658 0 0 0-2.82.6L6 3.423a2.646 2.646 0 0 0-.552 2.933c.136.307.284.606.443.9l-5.7 5.7a.661.661 0 0 0-.191.462v2.909a.661.661 0 0 0 .661.661H3.57a.661.661 0 0 0 .661-.661v-1.19h1.19a.661.661 0 0 0 .661-.661v-1.19h1.19a.661.661 0 0 0 0-1.322h-1.85a.661.661 0 0 0-.661.661v1.19H3.57a.661.661 0 0 0-.661.661v1.19H1.322v-1.974l5.863-5.863a.661.661 0 0 0 .1-.81 10.7 10.7 0 0 1-.626-1.2 1.316 1.316 0 0 1 .277-1.459l2.6-2.584a1.334 1.334 0 0 1 1.415-.3 8.1 8.1 0 0 1 2.785 1.741 8.319 8.319 0 0 1 1.782 2.816 1.313 1.313 0 0 1-.3 1.411l-2.629 2.616a1.331 1.331 0 0 1-1.455.284 8.582 8.582 0 0 1-1.19-.607.661.661 0 0 0-.692 1.127 9.91 9.91 0 0 0 1.374.7 2.65 2.65 0 0 0 2.9-.567l2.628-2.615a2.635 2.635 0 0 0 .589-2.832z" class="prefix__cls-3" data-name="Path 47039" transform="translate(0 -.067)"/>
                </g>
            </g>
        </g>
    </g>
</svg>
