<svg xmlns="http://www.w3.org/2000/svg" width="18" height="18" viewBox="0 0 18 18">
    <defs>
        <clipPath id="prefix__clip-path">
            <path id="prefix__Rectangle_4177" d="M0 0H18V18H0z" data-name="Rectangle 4177"/>
        </clipPath>
        <style>
            .prefix__cls-2{fill:none;stroke:#200e32;stroke-linecap:round;stroke-linejoin:round;stroke-width:1.299px;fill-rule:evenodd}
        </style>
    </defs>
    <g id="prefix__Mask_Group_103" clip-path="url(#prefix__clip-path)" data-name="Mask Group 103">
        <g id="prefix__graph" transform="translate(.875 .65)">
            <path id="prefix__Path_59829" d="M16.9 6.712A7.2 7.2 0 0 0 10.009.674a.618.618 0 0 0-.642.594v.055l.388 5.809a.713.713 0 0 0 .753.666l5.825-.388a.618.618 0 0 0 .571-.666z" class="prefix__cls-2" data-name="Path 59829" transform="translate(-.655 -.673)"/>
            <path id="prefix__Path_59830" d="M5.975 4.129a.792.792 0 0 1 .9.452.713.713 0 0 1 .071.262c.079 1.125.246 3.59.341 4.921a.9.9 0 0 0 .967.84l4.889-.3a.792.792 0 0 1 .84.792A6.665 6.665 0 0 1 1.5 13.86a6.34 6.34 0 0 1-.792-2.425 4.089 4.089 0 0 1-.048-.792 6.672 6.672 0 0 1 5.307-6.514" class="prefix__cls-2" data-name="Path 59830" transform="translate(-.655 -.673)"/>
        </g>
    </g>
</svg>
