<svg xmlns="http://www.w3.org/2000/svg" width="20" height="20" viewBox="0 0 20 20">
    <defs>
        <clipPath id="prefix__clip-path">
            <path id="prefix__Rectangle_3974" d="M0 0H20V20H0z" class="prefix__cls-1" data-name="Rectangle 3974"/>
        </clipPath>
        <style>
            .prefix__cls-1{fill:#4267b2}
        </style>
    </defs>
    <g id="prefix__facebook_login" clip-path="url(#prefix__clip-path)">
        <path id="prefix__facebook_1_" d="M18.9 0H1.1A1.1 1.1 0 0 0 0 1.1v17.8A1.1 1.1 0 0 0 1.1 20h9.58v-7.734h-2.6V9.238h2.6V7.01a3.636 3.636 0 0 1 3.882-3.99 21.371 21.371 0 0 1 2.329.119v2.7h-1.586c-1.254 0-1.5.6-1.5 1.47v1.929h3l-.391 3.027h-2.605V20H18.9a1.1 1.1 0 0 0 1.1-1.1V1.1A1.1 1.1 0 0 0 18.9 0zm0 0" class="prefix__cls-1" data-name="facebook (1)"/>
    </g>
</svg>
