<svg xmlns="http://www.w3.org/2000/svg" width="20" height="20" viewBox="0 0 20 20">
    <defs>
        <clipPath id="prefix__clip-path">
            <path id="prefix__Rectangle_3972" fill="#dcdcdc" d="M0 0H20V20H0z" data-name="Rectangle 3972"/>
        </clipPath>
    </defs>
    <g id="prefix__google_login" clip-path="url(#prefix__clip-path)">
        <g id="prefix__google">
            <path id="prefix__Path_59345" fill="#fbbd00" d="M4.688 10a5.28 5.28 0 0 1 .747-2.714V3.915H2.063a10.005 10.005 0 0 0 0 12.171h3.372v-3.372A5.28 5.28 0 0 1 4.688 10z" data-name="Path 59345"/>
            <path id="prefix__Path_59346" fill="#0f9d58" d="M10 15.313l-2.344 2.343L10 20a9.924 9.924 0 0 0 6.085-2.063v-3.368h-3.367a5.312 5.312 0 0 1-2.718.744z" data-name="Path 59346"/>
            <path id="prefix__Path_59347" fill="#31aa52" d="M5.435 12.714l-3.372 3.371a10.159 10.159 0 0 0 .866.986A9.935 9.935 0 0 0 10 20v-4.688a5.315 5.315 0 0 1-4.565-2.6z" data-name="Path 59347"/>
            <path id="prefix__Path_59348" fill="#3c79e6" d="M20 10a10.088 10.088 0 0 0-.164-1.812l-.088-.48H10V12.4h4.744a5.288 5.288 0 0 1-2.027 2.173l3.368 3.368a10.16 10.16 0 0 0 .986-.866A9.935 9.935 0 0 0 20 10z" data-name="Path 59348"/>
            <path id="prefix__Path_59349" fill="#cf2d48" d="M13.757 6.243l.414.414 3.315-3.315-.414-.414A9.935 9.935 0 0 0 10 0L7.656 2.344 10 4.687a5.278 5.278 0 0 1 3.757 1.556z" data-name="Path 59349"/>
            <path id="prefix__Path_59350" fill="#eb4132" d="M10 4.688V0a9.935 9.935 0 0 0-7.071 2.929 10.15 10.15 0 0 0-.866.986l3.372 3.371A5.315 5.315 0 0 1 10 4.688z" data-name="Path 59350"/>
        </g>
    </g>
</svg>
