<svg xmlns="http://www.w3.org/2000/svg" width="18" height="18" viewBox="0 0 18 18">
    <defs>
        <clipPath id="prefix__clip-path">
            <path id="prefix__Rectangle_4179" d="M0 0H18V18H0z" data-name="Rectangle 4179"/>
        </clipPath>
    </defs>
    <g id="prefix__Mask_Group_102" clip-path="url(#prefix__clip-path)" data-name="Mask Group 102">
        <g id="prefix__info">
            <path id="prefix__Path_59825" d="M9.75 4.5A.75.75 0 1 1 9 3.75a.75.75 0 0 1 .75.75zm0 0" data-name="Path 59825"/>
            <path id="prefix__Path_59826" d="M9 14.25a.563.563 0 0 1-.562-.562V7.875h-.75a.563.563 0 0 1 0-1.125H9a.563.563 0 0 1 .563.563v6.375A.563.563 0 0 1 9 14.25zm0 0" data-name="Path 59826"/>
            <path id="prefix__Path_59827" d="M9 18a9 9 0 1 1 9-9 9.01 9.01 0 0 1-9 9zM9 1.125A7.875 7.875 0 1 0 16.875 9 7.884 7.884 0 0 0 9 1.125zm0 0" data-name="Path 59827"/>
            <path id="prefix__Path_59828" d="M10.688 14.25H7.313a.563.563 0 0 1 0-1.125h3.375a.563.563 0 0 1 0 1.125zm0 0" data-name="Path 59828"/>
        </g>
    </g>
</svg>
