<svg xmlns="http://www.w3.org/2000/svg" width="16" height="16" viewBox="0 0 16 16">
    <defs>
        <clipPath id="prefix__clip-path">
            <path id="prefix__instagram" d="M797.615 2463a1.975 1.975 0 0 0-1.448-.6h-11.9a2.063 2.063 0 0 0-2.052 2.052v11.9a2.062 2.062 0 0 0 2.052 2.052h11.9a2.062 2.062 0 0 0 2.052-2.052v-11.9a1.976 1.976 0 0 0-.604-1.452z" class="prefix__cls-1" transform="translate(-782.219 -2462.393)"/>
        </clipPath>
        <style>
            .prefix__cls-1{fill:#fff}
        </style>
    </defs>
    <g id="prefix__Mask_Group_63" clip-path="url(#prefix__clip-path)" data-name="Mask Group 63" opacity="0.4">
        <g id="prefix__instagram-2" data-name="instagram" transform="translate(.002)">
            <path id="prefix__Path_48772" d="M15.97 4.7a5.846 5.846 0 0 0-.37-1.937A4.1 4.1 0 0 0 13.257.422 5.861 5.861 0 0 0 11.316.05C10.46.009 10.188 0 8.016 0s-2.444.009-3.3.047a5.848 5.848 0 0 0-1.939.372 3.9 3.9 0 0 0-1.419.925A3.939 3.939 0 0 0 .436 2.76 5.862 5.862 0 0 0 .064 4.7C.023 5.557.014 5.829.014 8s.009 2.444.047 3.3a5.846 5.846 0 0 0 .372 1.94 4.1 4.1 0 0 0 2.341 2.341 5.862 5.862 0 0 0 1.941.372c.853.038 1.125.047 3.3.047s2.444-.009 3.3-.047a5.845 5.845 0 0 0 1.941-.372 4.093 4.093 0 0 0 2.341-2.341 5.866 5.866 0 0 0 .372-1.941c.037-.853.047-1.125.047-3.3s0-2.444-.041-3.3zm-1.441 6.533a4.385 4.385 0 0 1-.275 1.485 2.654 2.654 0 0 1-1.519 1.519 4.4 4.4 0 0 1-1.485.275c-.844.038-1.1.047-3.232.047s-2.391-.009-3.232-.047A4.383 4.383 0 0 1 3.3 14.24a2.462 2.462 0 0 1-.919-.6 2.488 2.488 0 0 1-.6-.919 4.4 4.4 0 0 1-.275-1.485c-.038-.844-.047-1.1-.047-3.232s.009-2.391.047-3.232a4.383 4.383 0 0 1 .275-1.485 2.432 2.432 0 0 1 .6-.919 2.484 2.484 0 0 1 .919-.6A4.4 4.4 0 0 1 4.79 1.5c.844-.037 1.1-.047 3.232-.047s2.391.009 3.232.047a4.385 4.385 0 0 1 1.485.275 2.46 2.46 0 0 1 .919.6 2.487 2.487 0 0 1 .6.919 4.4 4.4 0 0 1 .275 1.485c.037.844.047 1.1.047 3.232s-.009 2.385-.047 3.229zm0 0" class="prefix__cls-1" data-name="Path 48772" transform="translate(-.014)"/>
            <path id="prefix__Path_48773" d="M8.016 3.891A4.11 4.11 0 1 0 12.126 8a4.111 4.111 0 0 0-4.11-4.109zm0 6.776A2.666 2.666 0 1 1 10.682 8a2.667 2.667 0 0 1-2.666 2.666zm0 0" class="prefix__cls-1" data-name="Path 48773" transform="translate(-.014)"/>
            <path id="prefix__Path_48774" d="M13.248 3.729a.96.96 0 1 1-.96-.96.96.96 0 0 1 .96.96zm0 0" class="prefix__cls-1" data-name="Path 48774" transform="translate(-.014)"/>
        </g>
    </g>
</svg>
