<svg xmlns="http://www.w3.org/2000/svg" width="96" height="96" viewBox="0 0 96 96">
    <defs>
        <clipPath id="prefix__clip-path">
            <path id="prefix__Rectangle_4169" fill="#12b2fc" stroke="#707070" d="M0 0H96V96H0z" data-name="Rectangle 4169" transform="translate(156 287)"/>
        </clipPath>
        <style>
            .prefix__cls-3{fill:#12b2fc}
        </style>
    </defs>
    <g id="prefix__Mask_Group_96" clip-path="url(#prefix__clip-path)" data-name="Mask Group 96" transform="translate(-156 -287)">
        <g id="prefix__waiting" transform="translate(156 287)">
            <g id="prefix__Group_61923" data-name="Group 61923" transform="translate(45.188)">
                <g id="prefix__Group_61922" data-name="Group 61922">
                    <path id="prefix__Path_59802" d="M32.938 0a2.813 2.813 0 0 0-2.812 2.813v18.075a2.813 2.813 0 1 0 5.625 0V2.813A2.813 2.813 0 0 0 32.938 0z" class="prefix__cls-3" data-name="Path 59802" transform="translate(-30.125)"/>
                </g>
            </g>
            <g id="prefix__Group_61925" data-name="Group 61925" transform="translate(45.188 72.3)">
                <g id="prefix__Group_61924" data-name="Group 61924">
                    <path id="prefix__Path_59803" d="M32.938 48.2a2.813 2.813 0 0 0-2.812 2.813v18.074a2.813 2.813 0 0 0 5.625 0V51.013a2.812 2.812 0 0 0-2.813-2.813z" class="prefix__cls-3" data-name="Path 59803" transform="translate(-30.125 -48.2)"/>
                </g>
            </g>
            <g id="prefix__Group_61927" data-name="Group 61927" transform="translate(22.594 6.053)">
                <g id="prefix__Group_61926" data-name="Group 61926">
                    <path id="prefix__Path_59804" d="M29.348 21.1L20.311 5.442a2.812 2.812 0 1 0-4.871 2.813l9.037 15.653a2.812 2.812 0 1 0 4.871-2.808z" class="prefix__cls-3" data-name="Path 59804" transform="translate(-15.062 -4.036)"/>
                </g>
            </g>
            <g id="prefix__Group_61929" data-name="Group 61929" transform="translate(58.744 68.667)">
                <g id="prefix__Group_61928" data-name="Group 61928">
                    <path id="prefix__Path_59805" d="M53.448 62.838l-9.037-15.653A2.812 2.812 0 0 0 39.54 50l9.037 15.653a2.812 2.812 0 1 0 4.871-2.812z" class="prefix__cls-3" data-name="Path 59805" transform="translate(-39.162 -45.778)"/>
                </g>
            </g>
            <g id="prefix__Group_61931" data-name="Group 61931" transform="translate(6.054 22.593)">
                <g id="prefix__Group_61930" data-name="Group 61930">
                    <path id="prefix__Path_59806" d="M23.909 24.477L8.255 15.44a2.812 2.812 0 0 0-2.813 4.871L21.1 29.349a2.813 2.813 0 0 0 2.813-4.871z" class="prefix__cls-3" data-name="Path 59806" transform="translate(-4.036 -15.062)"/>
                </g>
            </g>
            <g id="prefix__Group_61933" data-name="Group 61933" transform="translate(68.668 58.744)">
                <g id="prefix__Group_61932" data-name="Group 61932">
                    <path id="prefix__Path_59807" d="M65.651 48.577L50 39.54a2.813 2.813 0 0 0-2.812 4.871l15.653 9.037a2.813 2.813 0 0 0 2.813-4.871z" class="prefix__cls-3" data-name="Path 59807" transform="translate(-45.778 -39.162)"/>
                </g>
            </g>
            <g id="prefix__Group_61935" data-name="Group 61935" transform="translate(0 45.188)">
                <g id="prefix__Group_61934" data-name="Group 61934">
                    <path id="prefix__Path_59808" d="M20.888 30.125H2.813a2.813 2.813 0 0 0 0 5.625h18.075a2.813 2.813 0 0 0 0-5.625z" class="prefix__cls-3" data-name="Path 59808" transform="translate(0 -30.125)"/>
                </g>
            </g>
            <g id="prefix__Group_61937" data-name="Group 61937" transform="translate(72.3 45.188)">
                <g id="prefix__Group_61936" data-name="Group 61936">
                    <path id="prefix__Path_59809" d="M69.087 30.125H51.013a2.813 2.813 0 0 0 0 5.625h18.074a2.813 2.813 0 0 0 0-5.625z" class="prefix__cls-3" data-name="Path 59809" transform="translate(-48.2 -30.125)"/>
                </g>
            </g>
            <g id="prefix__Group_61939" data-name="Group 61939" transform="translate(6.054 58.744)">
                <g id="prefix__Group_61938" data-name="Group 61938">
                    <path id="prefix__Path_59810" d="M24.938 40.569A2.812 2.812 0 0 0 21.1 39.54L5.443 48.577a2.812 2.812 0 1 0 2.813 4.871L23.91 44.41a2.812 2.812 0 0 0 1.028-3.841z" class="prefix__cls-3" data-name="Path 59810" transform="translate(-4.036 -39.162)"/>
                </g>
            </g>
            <g id="prefix__Group_61941" data-name="Group 61941" transform="translate(68.667 22.594)">
                <g id="prefix__Group_61940" data-name="Group 61940">
                    <path id="prefix__Path_59811" d="M66.68 16.469a2.812 2.812 0 0 0-3.842-1.029l-15.653 9.037A2.812 2.812 0 1 0 50 29.349l15.653-9.037a2.812 2.812 0 0 0 1.027-3.843z" class="prefix__cls-3" data-name="Path 59811" transform="translate(-45.778 -15.063)"/>
                </g>
            </g>
            <g id="prefix__Group_61943" data-name="Group 61943" transform="translate(22.594 68.667)">
                <g id="prefix__Group_61942" data-name="Group 61942">
                    <path id="prefix__Path_59812" d="M28.319 46.156a2.812 2.812 0 0 0-3.842 1.029L15.44 62.839a2.812 2.812 0 1 0 4.871 2.813L29.348 50a2.812 2.812 0 0 0-1.029-3.844z" class="prefix__cls-3" data-name="Path 59812" transform="translate(-15.062 -45.778)"/>
                </g>
            </g>
            <g id="prefix__Group_61945" data-name="Group 61945" transform="translate(58.744 6.054)">
                <g id="prefix__Group_61944" data-name="Group 61944">
                    <path id="prefix__Path_59813" d="M52.419 4.413a2.812 2.812 0 0 0-3.842 1.029L39.54 21.1a2.812 2.812 0 1 0 4.871 2.813l9.037-15.658a2.812 2.812 0 0 0-1.029-3.842z" class="prefix__cls-3" data-name="Path 59813" transform="translate(-39.162 -4.036)"/>
                </g>
            </g>
        </g>
    </g>
</svg>
