<svg xmlns="http://www.w3.org/2000/svg" width="195.5" height="56" viewBox="0 0 195.5 56">
  <g id="Healthcliq_header" data-name="Healthcliq header" transform="translate(-163.408 -1734.655)">
    <path id="Path_59763" data-name="Path 59763" d="M518.857,1833.88a4.052,4.052,0,0,0,3.879,4.264c1.9,0,2.916-.963,3.852-2.5l2.091,1.183a6.7,6.7,0,0,1-5.97,3.521c-3.934,0-6.328-2.971-6.328-6.768,0-3.962,2.118-6.933,6.273-6.933,4.1,0,6.025,3.026,6.025,6.85v.385Zm7.345-1.871a3.475,3.475,0,0,0-3.549-3.219,3.684,3.684,0,0,0-3.659,3.219Z" transform="translate(-275.363 -71.385)"/>
    <path id="Path_59764" data-name="Path 59764" d="M597.124,1839.905h-2.476V1837.9h-.055a5.276,5.276,0,0,1-4.375,2.449c-3.934,0-6.163-3.274-6.163-6.96,0-3.522,2.339-6.74,6.08-6.74a5.268,5.268,0,0,1,4.457,2.531h.055v-2.146h2.476Zm-2.338-6.438c0-2.5-1.513-4.622-4.182-4.622-2.559,0-4.072,2.229-4.072,4.622,0,2.421,1.458,4.677,4.072,4.677,2.7,0,4.182-2.146,4.182-4.677" transform="translate(-328.233 -71.385)"/>
    <rect id="Rectangle_4150" data-name="Rectangle 4150" width="2.476" height="23.88" transform="translate(273.6 1744.604)"/>
    <path id="Path_59765" data-name="Path 59765" d="M698.326,1823.689H695.85v-10.565H694.5v-2.311h1.348v-4.925h2.476v4.925h2.421v2.311h-2.421Z" transform="translate(-414.518 -55.182)"/>
    <path id="Path_59766" data-name="Path 59766" d="M737.985,1778.088v12.738h.055a4.394,4.394,0,0,1,3.879-2.119c3.632,0,4.567,2.448,4.567,5.585v7.676H744.01V1794.6c0-2.2-.3-3.687-2.834-3.687-3.192,0-3.192,2.806-3.192,5.145v5.915h-2.476v-23.88Z" transform="translate(-446.553 -33.484)"/>
    <path id="Path_59767" data-name="Path 59767" d="M813.514,1830.688a4.722,4.722,0,0,0-3.687-1.733,4.453,4.453,0,0,0-4.292,4.512,4.35,4.35,0,0,0,4.457,4.567,4.63,4.63,0,0,0,3.522-1.706v3.164a7.2,7.2,0,0,1-3.549.853,6.776,6.776,0,0,1-6.906-6.768,6.845,6.845,0,0,1,7.043-6.933,6.976,6.976,0,0,1,3.412.853Z" transform="translate(-499.325 -71.385)" fill="#3391de"/>
    <rect id="Rectangle_4151" data-name="Rectangle 4151" width="2.476" height="23.88" transform="translate(318.345 1744.604)" fill="#3391de"/>
    <path id="Path_59768" data-name="Path 59768" d="M907.355,1795.293a1.706,1.706,0,0,1-3.412,0,1.706,1.706,0,1,1,3.412,0m-.468,18.763h-2.476v-12.875h2.476Z" transform="translate(-578.132 -45.559)" fill="#3391de"/>
    <path id="Path_59769" data-name="Path 59769" d="M950.346,1847.278H947.87V1837.9h-.055a5.313,5.313,0,0,1-4.374,2.449c-3.962,0-6.163-3.274-6.163-6.96,0-3.522,2.339-6.74,6.053-6.74a5.278,5.278,0,0,1,4.484,2.531h.055v-2.146h2.476Zm-2.338-13.811c0-2.5-1.513-4.622-4.182-4.622-2.558,0-4.072,2.229-4.072,4.622,0,2.421,1.458,4.677,4.072,4.677,2.7,0,4.182-2.146,4.182-4.677" transform="translate(-604.177 -71.365)" fill="#3391de"/>
    <path id="Path_59770" data-name="Path 59770" d="M1020.556,1829.973a1.906,1.906,0,0,0-1.651-1.128,1.334,1.334,0,0,0-1.348,1.265c0,1.128,1.485,1.623,3,2.311s2.971,1.623,2.971,3.659a4.322,4.322,0,0,1-4.429,4.264,4.745,4.745,0,0,1-4.457-2.889l2.119-.963a2.557,2.557,0,0,0,2.338,1.651,1.847,1.847,0,0,0,1.953-1.816,1.554,1.554,0,0,0-.908-1.4l-2.421-1.293c-1.431-.771-2.476-1.486-2.476-3.247a3.757,3.757,0,0,1,3.8-3.742,3.831,3.831,0,0,1,3.522,2.256Z" transform="translate(-664.62 -71.385)" fill="#3391de"/>
    <path id="Path_59771" data-name="Path 59771" d="M428.774,1940.436h-.427v-.787h-.02a1.96,1.96,0,0,1-1.669.882,2.159,2.159,0,0,1-2.162-2.314,2.1,2.1,0,0,1,2.143-2.257,2.018,2.018,0,0,1,1.688.853h.02v-.758h.427Zm-3.85-2.219a1.79,1.79,0,0,0,1.726,1.916,1.771,1.771,0,0,0,1.725-1.964,1.718,1.718,0,0,0-1.754-1.81,1.788,1.788,0,0,0-1.7,1.859" transform="translate(-203.581 -156.692)"/>
    <path id="Path_59772" data-name="Path 59772" d="M466.061,1927.688h-.02a1.96,1.96,0,0,1-1.669.881,2.159,2.159,0,0,1-2.162-2.314,2.1,2.1,0,0,1,2.143-2.257,2.018,2.018,0,0,1,1.688.853h.02v-4.2h.427v7.824h-.427Zm.028-1.48a1.718,1.718,0,0,0-1.754-1.81,1.893,1.893,0,1,0,1.754,1.81" transform="translate(-233.044 -144.73)"/>
    <path id="Path_59773" data-name="Path 59773" d="M489.174,1928.324a.389.389,0,0,1-.778,0,.389.389,0,1,1,.778,0m-.181,5.842h-.426v-4.381h.426Z" transform="translate(-253.501 -150.422)"/>
    <path id="Path_59774" data-name="Path 59774" d="M500.97,1940.227a2.916,2.916,0,0,1-.436,1.859,2.112,2.112,0,0,1-1.745.845,1.993,1.993,0,0,1-2.162-1.878h.427a1.6,1.6,0,0,0,1.7,1.479,1.64,1.64,0,0,0,1.4-.654,2.814,2.814,0,0,0,.389-1.659v-.541h-.019a2.212,2.212,0,1,1-1.65-3.717,1.952,1.952,0,0,1,1.65.853h.019v-.758h.427Zm-3.851-2.01a1.79,1.79,0,0,0,1.726,1.916,1.771,1.771,0,0,0,1.726-1.964,1.718,1.718,0,0,0-1.754-1.81,1.788,1.788,0,0,0-1.7,1.859" transform="translate(-259.931 -156.692)"/>
    <path id="Path_59775" data-name="Path 59775" d="M523.9,1928.324a.389.389,0,0,1-.778,0,.389.389,0,1,1,.778,0m-.181,5.842h-.426v-4.381h.426Z" transform="translate(-280.627 -150.422)"/>
    <path id="Path_59776" data-name="Path 59776" d="M532.217,1935.185h-.427V1931.2h-.484v-.4h.484v-1.565h.427v1.565h.767v.4h-.767Z" transform="translate(-287.025 -151.441)"/>
    <path id="Path_59777" data-name="Path 59777" d="M544.685,1940.436h-.427v-.787h-.02a1.96,1.96,0,0,1-1.669.882,2.159,2.159,0,0,1-2.162-2.314,2.1,2.1,0,0,1,2.143-2.257,2.017,2.017,0,0,1,1.688.853h.02v-.758h.427Zm-3.851-2.219a1.79,1.79,0,0,0,1.726,1.916,1.771,1.771,0,0,0,1.725-1.964,1.717,1.717,0,0,0-1.754-1.81,1.788,1.788,0,0,0-1.7,1.859" transform="translate(-294.134 -156.692)"/>
    <rect id="Rectangle_4152" data-name="Rectangle 4152" width="0.427" height="7.824" transform="translate(252.011 1775.919)"/>
    <path id="Path_59778" data-name="Path 59778" d="M589.128,1920.65v4.125h.019a1.435,1.435,0,0,1,1.3-.776c1.129,0,1.441.7,1.441,1.83v2.646h-.426v-2.646c0-.787-.1-1.432-1.053-1.432-1.1,0-1.28,1.024-1.28,1.915v2.162H588.7v-7.824Z" transform="translate(-331.863 -144.73)"/>
    <path id="Path_59779" data-name="Path 59779" d="M608.417,1938.283a1.709,1.709,0,0,0,1.754,1.849,1.754,1.754,0,0,0,1.546-1l.36.209a2.56,2.56,0,1,1,.143-1.063Zm3.376-.4a1.7,1.7,0,0,0-3.376,0Z" transform="translate(-346.932 -156.692)"/>
    <path id="Path_59780" data-name="Path 59780" d="M634.375,1940.436h-.427v-.787h-.02a1.96,1.96,0,0,1-1.669.882,2.158,2.158,0,0,1-2.162-2.314,2.1,2.1,0,0,1,2.143-2.257,2.017,2.017,0,0,1,1.688.853h.02v-.758h.427Zm-3.85-2.219a1.79,1.79,0,0,0,1.726,1.916,1.771,1.771,0,0,0,1.725-1.964,1.717,1.717,0,0,0-1.754-1.81,1.787,1.787,0,0,0-1.7,1.859" transform="translate(-364.203 -156.692)"/>
    <rect id="Rectangle_4153" data-name="Rectangle 4153" width="0.427" height="7.824" transform="translate(271.632 1775.919)"/>
    <path id="Path_59781" data-name="Path 59781" d="M663.868,1935.185h-.427V1931.2h-.484v-.4h.484v-1.565h.427v1.565h.768v.4h-.768Z" transform="translate(-389.874 -151.441)"/>
    <path id="Path_59782" data-name="Path 59782" d="M674.438,1920.65v4.125h.018a1.435,1.435,0,0,1,1.3-.776c1.129,0,1.441.7,1.441,1.83v2.646h-.427v-2.646c0-.787-.095-1.432-1.052-1.432-1.1,0-1.28,1.024-1.28,1.915v2.162h-.427v-7.824Z" transform="translate(-398.51 -144.73)"/>
    <path id="Path_59783" data-name="Path 59783" d="M697.085,1937.069a2.021,2.021,0,0,0-1.545-.711,1.889,1.889,0,0,0-.011,3.774,2.111,2.111,0,0,0,1.613-.787v.578a2.422,2.422,0,0,1-1.594.607,2.286,2.286,0,0,1,.009-4.571,2.3,2.3,0,0,1,1.527.54Z" transform="translate(-413.58 -156.692)"/>
    <path id="Path_59784" data-name="Path 59784" d="M718.255,1940.436h-.427v-.787h-.02a1.959,1.959,0,0,1-1.668.882,2.159,2.159,0,0,1-2.163-2.314,2.1,2.1,0,0,1,2.143-2.257,2.017,2.017,0,0,1,1.688.853h.02v-.758h.427Zm-3.85-2.219a1.79,1.79,0,0,0,1.726,1.916,1.771,1.771,0,0,0,1.725-1.964,1.718,1.718,0,0,0-1.754-1.81,1.788,1.788,0,0,0-1.7,1.859" transform="translate(-429.733 -156.692)"/>
    <path id="Path_59785" data-name="Path 59785" d="M740.627,1936.624h.019a1,1,0,0,1,.949-.664,1.107,1.107,0,0,1,.465.1l-.228.38a.579.579,0,0,0-.3-.086c-.958,0-.9,1.194-.9,1.839v2.239H740.2v-4.381h.427Z" transform="translate(-450.219 -156.692)"/>
    <path id="Path_59786" data-name="Path 59786" d="M750.73,1938.283a1.709,1.709,0,0,0,1.754,1.849,1.754,1.754,0,0,0,1.546-1l.36.209a2.56,2.56,0,1,1,.143-1.063Zm3.376-.4a1.7,1.7,0,0,0-3.376,0Z" transform="translate(-458.111 -156.692)"/>
    <path id="Path_59787" data-name="Path 59787" d="M788.229,1936.6h.018a1.207,1.207,0,0,1,1.1-.644,1.291,1.291,0,0,1,1.234.8,1.351,1.351,0,0,1,1.28-.8c1.129,0,1.357.767,1.357,1.725v2.751h-.427v-2.807c0-.674-.1-1.271-.939-1.271-.911,0-1.129.8-1.129,1.555v2.523H790.3v-2.7c0-.682-.122-1.374-.976-1.374-.92,0-1.09.958-1.09,1.668v2.409H787.8v-4.381h.427Z" transform="translate(-487.407 -156.692)"/>
    <path id="Path_59788" data-name="Path 59788" d="M821.552,1940.436h-.427v-.787h-.019a1.96,1.96,0,0,1-1.669.882,2.158,2.158,0,0,1-2.162-2.314,2.1,2.1,0,0,1,2.143-2.257,2.017,2.017,0,0,1,1.688.853h.019v-.758h.427Zm-3.85-2.219a1.79,1.79,0,0,0,1.726,1.916,1.771,1.771,0,0,0,1.725-1.964,1.717,1.717,0,0,0-1.754-1.81,1.788,1.788,0,0,0-1.7,1.859" transform="translate(-510.432 -156.692)"/>
    <path id="Path_59789" data-name="Path 59789" d="M843.929,1936.624h.019a1,1,0,0,1,.949-.664,1.107,1.107,0,0,1,.465.1l-.229.38a.579.579,0,0,0-.3-.086c-.958,0-.9,1.194-.9,1.839v2.239H843.5v-4.381h.427Z" transform="translate(-530.922 -156.692)"/>
    <path id="Path_59790" data-name="Path 59790" d="M855.98,1925.952l1.8-1.859h.551l-1.841,1.9,2.457,2.485h-.56l-2.172-2.191-.237.247v1.944h-.427v-7.825h.427Z" transform="translate(-540.336 -144.73)"/>
    <path id="Path_59791" data-name="Path 59791" d="M872.536,1938.283a1.709,1.709,0,0,0,1.754,1.849,1.754,1.754,0,0,0,1.546-1l.36.209a2.56,2.56,0,1,1,.143-1.063Zm3.376-.4a1.7,1.7,0,0,0-3.376,0Z" transform="translate(-553.27 -156.692)"/>
    <path id="Path_59792" data-name="Path 59792" d="M895.085,1935.185h-.427V1931.2h-.483v-.4h.483v-1.565h.427v1.565h.767v.4h-.767Z" transform="translate(-570.5 -151.441)"/>
    <path id="Path_59793" data-name="Path 59793" d="M905.655,1936.842h.019a1.962,1.962,0,0,1,1.67-.882,2.161,2.161,0,0,1,2.161,2.323,2.094,2.094,0,0,1-2.143,2.248,1.982,1.982,0,0,1-1.688-.854h-.019V1943h-.427v-6.942h.427Zm-.029,1.5a1.7,1.7,0,0,0,1.745,1.793,1.749,1.749,0,0,0,1.708-1.84,1.74,1.74,0,1,0-3.453.047" transform="translate(-579.136 -156.692)"/>
    <rect id="Rectangle_4154" data-name="Rectangle 4154" width="0.427" height="7.824" transform="translate(331.401 1775.919)"/>
    <path id="Path_59794" data-name="Path 59794" d="M940.455,1940.436h-.427v-.787h-.02a1.96,1.96,0,0,1-1.668.882,2.159,2.159,0,0,1-2.163-2.314,2.1,2.1,0,0,1,2.143-2.257,2.017,2.017,0,0,1,1.688.853h.02v-.758h.427Zm-3.85-2.219a1.79,1.79,0,0,0,1.726,1.916,1.771,1.771,0,0,0,1.725-1.964,1.718,1.718,0,0,0-1.754-1.81,1.788,1.788,0,0,0-1.7,1.859" transform="translate(-603.317 -156.692)"/>
    <path id="Path_59795" data-name="Path 59795" d="M964.237,1937.069a2.021,2.021,0,0,0-1.545-.711,1.889,1.889,0,0,0-.01,3.774,2.11,2.11,0,0,0,1.613-.787v.578a2.42,2.42,0,0,1-1.594.607,2.286,2.286,0,0,1,.01-4.571,2.3,2.3,0,0,1,1.526.54Z" transform="translate(-622.283 -156.692)"/>
    <path id="Path_59796" data-name="Path 59796" d="M981.557,1938.283a1.709,1.709,0,0,0,1.754,1.849,1.753,1.753,0,0,0,1.546-1l.36.209a2.56,2.56,0,1,1,.143-1.063Zm3.377-.4a1.7,1.7,0,0,0-3.377,0Z" transform="translate(-638.438 -156.692)"/>
    <g id="App_Icon" data-name="App Icon" transform="translate(163.908 1735.155)">
      <path id="Union_4" data-name="Union 4" d="M14.045,55A14.086,14.086,0,0,1,0,40.9V0H9.786V40.9a4.271,4.271,0,0,0,4.258,4.274h4.55v-16.7H29.849v16.7H36.7V55Z" transform="translate(0)" fill="#12b1fb" stroke="rgba(0,0,0,0)" stroke-miterlimit="10" stroke-width="1"/>
      <path id="Path_59798" data-name="Path 59798" d="M314.572,1800.626h-9.787V1779.1a7.838,7.838,0,0,0-7.829-7.829v-9.786a17.636,17.636,0,0,1,17.616,17.616Z" transform="translate(-267.857 -1755.723)" fill="#00e7b7"/>
      <rect id="Rectangle_4155" data-name="Rectangle 4155" width="8.181" height="9.787" transform="translate(20.917 5.757)" fill="#44e6f7"/>
    </g>
    <path id="Path_59799" data-name="Path 59799" d="M442.425,1800.792v-8.364h2.586v20.744h-2.586v-9.959h-9.877v9.959h-2.586v-20.744h2.586v8.364Z" transform="translate(-207.85 -44.676)"/>
  </g>
</svg>
