<svg xmlns="http://www.w3.org/2000/svg" width="146.519" height="42.185" viewBox="0 0 146.519 42.185">
  <g id="Healthcliq_footer" data-name="Healthcliq footer" transform="translate(0.5 0.5)">
    <path id="Path_59763" data-name="Path 59763" d="M518.235,1832.062a3.034,3.034,0,0,0,2.9,3.193,3.154,3.154,0,0,0,2.884-1.875l1.566.886a5.017,5.017,0,0,1-4.471,2.637c-2.946,0-4.738-2.225-4.738-5.068,0-2.967,1.586-5.192,4.7-5.192,3.07,0,4.512,2.266,4.512,5.13v.289Zm5.5-1.4a2.6,2.6,0,0,0-2.658-2.411,2.759,2.759,0,0,0-2.74,2.411Z" transform="translate(-458.639 -1811.589)" fill="#fff"/>
    <path id="Path_59764" data-name="Path 59764" d="M593.842,1836.574h-1.854v-1.5h-.041a3.951,3.951,0,0,1-3.276,1.834c-2.946,0-4.615-2.452-4.615-5.212,0-2.637,1.751-5.047,4.553-5.047a3.945,3.945,0,0,1,3.337,1.9h.041v-1.607h1.854Zm-1.751-4.821a3.11,3.11,0,1,0-6.18,0c0,1.813,1.092,3.5,3.049,3.5,2.019,0,3.131-1.607,3.131-3.5" transform="translate(-515.228 -1811.589)" fill="#fff"/>
    <rect id="Rectangle_4150" data-name="Rectangle 4150" width="1.854" height="17.882" transform="translate(82.139 7.076)" fill="#fff"/>
    <path id="Path_59765" data-name="Path 59765" d="M697.366,1819.218h-1.854v-7.911H694.5v-1.73h1.01v-3.688h1.854v3.688h1.813v1.73h-1.813Z" transform="translate(-607.582 -1794.243)" fill="#fff"/>
    <path id="Path_59766" data-name="Path 59766" d="M737.363,1778.088v9.538h.041a3.291,3.291,0,0,1,2.9-1.586c2.719,0,3.42,1.833,3.42,4.182v5.748h-1.854v-5.521c0-1.648-.227-2.761-2.122-2.761-2.39,0-2.39,2.1-2.39,3.853v4.429h-1.854v-17.882Z" transform="translate(-641.871 -1771.012)" fill="#fff"/>
    <path id="Path_59767" data-name="Path 59767" d="M810.888,1829.673a3.536,3.536,0,0,0-2.761-1.3,3.335,3.335,0,0,0-3.214,3.379,3.257,3.257,0,0,0,3.337,3.42,3.467,3.467,0,0,0,2.637-1.277v2.369a5.392,5.392,0,0,1-2.658.639,5.074,5.074,0,0,1-5.171-5.068,5.126,5.126,0,0,1,5.274-5.192,5.224,5.224,0,0,1,2.555.639Z" transform="translate(-698.355 -1811.589)" fill="#fff"/>
    <rect id="Rectangle_4151" data-name="Rectangle 4151" width="1.854" height="17.882" transform="translate(115.645 7.076)" fill="#fff"/>
    <path id="Path_59768" data-name="Path 59768" d="M906.5,1794.858a1.278,1.278,0,0,1-2.555,0,1.278,1.278,0,1,1,2.555,0m-.35,14.05h-1.854v-9.641h1.854Z" transform="translate(-782.707 -1783.94)" fill="#fff"/>
    <path id="Path_59769" data-name="Path 59769" d="M947.064,1842.1H945.21v-7.025h-.041a3.978,3.978,0,0,1-3.276,1.834c-2.967,0-4.615-2.452-4.615-5.212,0-2.637,1.751-5.047,4.532-5.047a3.953,3.953,0,0,1,3.358,1.9h.041v-1.607h1.854Zm-1.751-10.342a3.11,3.11,0,1,0-6.18,0c0,1.813,1.092,3.5,3.049,3.5,2.019,0,3.131-1.607,3.131-3.5" transform="translate(-810.583 -1811.575)" fill="#fff"/>
    <path id="Path_59770" data-name="Path 59770" d="M1019.07,1829.137a1.427,1.427,0,0,0-1.236-.844,1,1,0,0,0-1.009.948c0,.845,1.112,1.216,2.246,1.731s2.225,1.216,2.225,2.74a3.236,3.236,0,0,1-3.317,3.193,3.553,3.553,0,0,1-3.337-2.163l1.586-.721a1.915,1.915,0,0,0,1.751,1.236,1.383,1.383,0,0,0,1.463-1.36,1.164,1.164,0,0,0-.68-1.051l-1.813-.968c-1.071-.577-1.854-1.113-1.854-2.431a2.814,2.814,0,0,1,2.843-2.8,2.869,2.869,0,0,1,2.637,1.689Z" transform="translate(-875.276 -1811.589)" fill="#fff"/>
    <path id="Path_59771" data-name="Path 59771" d="M427.7,1939.312h-.32v-.589h-.015a1.468,1.468,0,0,1-1.249.66,1.616,1.616,0,0,1-1.619-1.733,1.574,1.574,0,0,1,1.6-1.69,1.511,1.511,0,0,1,1.264.639h.015v-.568h.32Zm-2.883-1.662a1.34,1.34,0,0,0,1.293,1.434,1.326,1.326,0,0,0,1.292-1.47,1.286,1.286,0,0,0-1.313-1.356,1.339,1.339,0,0,0-1.271,1.392" transform="translate(-381.808 -1902.927)" fill="#fff"/>
    <path id="Path_59772" data-name="Path 59772" d="M465.093,1925.92h-.015a1.468,1.468,0,0,1-1.25.66,1.616,1.616,0,0,1-1.619-1.732,1.574,1.574,0,0,1,1.6-1.69,1.511,1.511,0,0,1,1.264.639h.015v-3.146h.32v5.859h-.32Zm.021-1.109a1.286,1.286,0,0,0-1.313-1.356,1.418,1.418,0,1,0,1.313,1.356" transform="translate(-413.343 -1890.125)" fill="#fff"/>
    <path id="Path_59773" data-name="Path 59773" d="M488.978,1928.227a.291.291,0,0,1-.582,0,.291.291,0,1,1,.582,0m-.135,4.374h-.319v-3.281h.319Z" transform="translate(-435.24 -1896.217)" fill="#fff"/>
    <path id="Path_59774" data-name="Path 59774" d="M499.879,1939.156a2.183,2.183,0,0,1-.327,1.392,1.582,1.582,0,0,1-1.307.633,1.492,1.492,0,0,1-1.619-1.406h.32a1.2,1.2,0,0,0,1.271,1.108,1.228,1.228,0,0,0,1.051-.49,2.107,2.107,0,0,0,.291-1.242v-.405h-.014a1.656,1.656,0,1,1-1.236-2.783,1.461,1.461,0,0,1,1.236.639h.014v-.568h.32ZM497,1937.65a1.341,1.341,0,0,0,1.293,1.434,1.326,1.326,0,0,0,1.293-1.47,1.286,1.286,0,0,0-1.313-1.356A1.339,1.339,0,0,0,497,1937.65" transform="translate(-442.122 -1902.927)" fill="#fff"/>
    <path id="Path_59775" data-name="Path 59775" d="M523.7,1928.227a.291.291,0,0,1-.582,0,.291.291,0,1,1,.582,0m-.136,4.374h-.319v-3.281h.319Z" transform="translate(-464.274 -1896.217)" fill="#fff"/>
    <path id="Path_59776" data-name="Path 59776" d="M531.989,1933.692h-.32v-2.983h-.362v-.3h.362v-1.172h.32v1.172h.575v.3h-.575Z" transform="translate(-471.121 -1897.307)" fill="#fff"/>
    <path id="Path_59777" data-name="Path 59777" d="M543.611,1939.312h-.32v-.589h-.015a1.468,1.468,0,0,1-1.249.66,1.616,1.616,0,0,1-1.619-1.733,1.574,1.574,0,0,1,1.6-1.69,1.51,1.51,0,0,1,1.264.639h.015v-.568h.32Zm-2.883-1.662a1.34,1.34,0,0,0,1.293,1.434,1.326,1.326,0,0,0,1.292-1.47,1.286,1.286,0,0,0-1.313-1.356,1.339,1.339,0,0,0-1.271,1.392" transform="translate(-478.731 -1902.927)" fill="#fff"/>
    <rect id="Rectangle_4152" data-name="Rectangle 4152" width="0.32" height="5.859" transform="translate(65.973 30.525)" fill="#fff"/>
    <path id="Path_59778" data-name="Path 59778" d="M589.021,1920.65v3.089h.014a1.075,1.075,0,0,1,.973-.581c.845,0,1.079.525,1.079,1.37v1.981h-.319v-1.981c0-.589-.072-1.072-.789-1.072-.824,0-.958.766-.958,1.434v1.619h-.32v-5.859Z" transform="translate(-519.113 -1890.125)" fill="#fff"/>
    <path id="Path_59779" data-name="Path 59779" d="M608.31,1937.7a1.28,1.28,0,0,0,1.313,1.385,1.314,1.314,0,0,0,1.158-.746l.27.156a1.917,1.917,0,1,1,.107-.8Zm2.528-.3a1.271,1.271,0,0,0-2.528,0Z" transform="translate(-535.242 -1902.927)" fill="#fff"/>
    <path id="Path_59780" data-name="Path 59780" d="M633.3,1939.312h-.32v-.589h-.015a1.467,1.467,0,0,1-1.249.66,1.616,1.616,0,0,1-1.619-1.733,1.574,1.574,0,0,1,1.6-1.69,1.51,1.51,0,0,1,1.264.639h.015v-.568h.32Zm-2.883-1.662a1.34,1.34,0,0,0,1.293,1.434,1.326,1.326,0,0,0,1.292-1.47,1.286,1.286,0,0,0-1.313-1.356,1.338,1.338,0,0,0-1.271,1.392" transform="translate(-553.729 -1902.927)" fill="#fff"/>
    <rect id="Rectangle_4153" data-name="Rectangle 4153" width="0.32" height="5.859" transform="translate(80.665 30.525)" fill="#fff"/>
    <path id="Path_59781" data-name="Path 59781" d="M663.639,1933.692h-.32v-2.983h-.362v-.3h.362v-1.172h.32v1.172h.576v.3h-.576Z" transform="translate(-581.205 -1897.307)" fill="#fff"/>
    <path id="Path_59782" data-name="Path 59782" d="M674.331,1920.65v3.089h.014a1.075,1.075,0,0,1,.973-.581c.845,0,1.079.525,1.079,1.37v1.981h-.32v-1.981c0-.589-.071-1.072-.788-1.072-.824,0-.958.766-.958,1.434v1.619h-.32v-5.859Z" transform="translate(-590.448 -1890.125)" fill="#fff"/>
    <path id="Path_59783" data-name="Path 59783" d="M696.134,1936.79a1.513,1.513,0,0,0-1.157-.532,1.415,1.415,0,0,0-.008,2.826,1.58,1.58,0,0,0,1.208-.589v.433a1.813,1.813,0,0,1-1.193.455,1.711,1.711,0,0,1,.007-3.423,1.719,1.719,0,0,1,1.143.4Z" transform="translate(-606.578 -1902.927)" fill="#fff"/>
    <path id="Path_59784" data-name="Path 59784" d="M717.181,1939.312h-.319v-.589h-.015a1.467,1.467,0,0,1-1.249.66,1.616,1.616,0,0,1-1.619-1.733,1.574,1.574,0,0,1,1.6-1.69,1.51,1.51,0,0,1,1.264.639h.015v-.568h.319Zm-2.883-1.662a1.34,1.34,0,0,0,1.293,1.434,1.326,1.326,0,0,0,1.292-1.47,1.286,1.286,0,0,0-1.313-1.356,1.339,1.339,0,0,0-1.271,1.392" transform="translate(-623.868 -1902.927)" fill="#fff"/>
    <path id="Path_59785" data-name="Path 59785" d="M740.52,1936.457h.014a.746.746,0,0,1,.71-.5.831.831,0,0,1,.348.078l-.171.285a.432.432,0,0,0-.227-.064c-.717,0-.674.895-.674,1.377v1.676h-.32v-3.281h.32Z" transform="translate(-645.794 -1902.927)" fill="#fff"/>
    <path id="Path_59786" data-name="Path 59786" d="M750.623,1937.7a1.279,1.279,0,0,0,1.313,1.385,1.313,1.313,0,0,0,1.158-.746l.27.156a1.917,1.917,0,1,1,.107-.8Zm2.528-.3a1.271,1.271,0,0,0-2.528,0Z" transform="translate(-654.242 -1902.927)" fill="#fff"/>
    <path id="Path_59787" data-name="Path 59787" d="M788.122,1936.442h.014a.9.9,0,0,1,.823-.482.967.967,0,0,1,.924.6,1.011,1.011,0,0,1,.958-.6c.845,0,1.016.575,1.016,1.292v2.06h-.32v-2.1c0-.5-.078-.951-.7-.951-.682,0-.845.6-.845,1.165v1.889h-.32v-2.024c0-.511-.092-1.029-.731-1.029-.689,0-.816.717-.816,1.249v1.8h-.32v-3.281h.32Z" transform="translate(-685.598 -1902.927)" fill="#fff"/>
    <path id="Path_59788" data-name="Path 59788" d="M820.478,1939.312h-.32v-.589h-.015a1.468,1.468,0,0,1-1.249.66,1.616,1.616,0,0,1-1.619-1.733,1.574,1.574,0,0,1,1.6-1.69,1.51,1.51,0,0,1,1.264.639h.015v-.568h.32Zm-2.883-1.662a1.34,1.34,0,0,0,1.293,1.434,1.326,1.326,0,0,0,1.292-1.47,1.286,1.286,0,0,0-1.313-1.356,1.339,1.339,0,0,0-1.271,1.392" transform="translate(-710.243 -1902.927)" fill="#fff"/>
    <path id="Path_59789" data-name="Path 59789" d="M843.822,1936.457h.014a.745.745,0,0,1,.71-.5.832.832,0,0,1,.348.078l-.171.285a.431.431,0,0,0-.227-.064c-.717,0-.674.895-.674,1.377v1.676h-.32v-3.281h.32Z" transform="translate(-732.174 -1902.927)" fill="#fff"/>
    <path id="Path_59790" data-name="Path 59790" d="M855.873,1924.62l1.349-1.392h.412l-1.378,1.42,1.839,1.861h-.419l-1.626-1.641-.177.185v1.456h-.32v-5.859h.32Z" transform="translate(-742.25 -1890.125)" fill="#fff"/>
    <path id="Path_59791" data-name="Path 59791" d="M872.429,1937.7a1.279,1.279,0,0,0,1.313,1.385,1.314,1.314,0,0,0,1.158-.746l.27.156a1.917,1.917,0,1,1,.107-.8Zm2.528-.3a1.271,1.271,0,0,0-2.528,0Z" transform="translate(-756.094 -1902.927)" fill="#fff"/>
    <path id="Path_59792" data-name="Path 59792" d="M894.857,1933.692h-.32v-2.983h-.362v-.3h.362v-1.172h.32v1.172h.575v.3h-.575Z" transform="translate(-774.539 -1897.307)" fill="#fff"/>
    <path id="Path_59793" data-name="Path 59793" d="M905.548,1936.62h.014a1.47,1.47,0,0,1,1.25-.66,1.618,1.618,0,0,1,1.618,1.74,1.568,1.568,0,0,1-1.6,1.683,1.484,1.484,0,0,1-1.264-.64h-.014v2.486h-.32v-5.2h.32Zm-.022,1.122a1.27,1.27,0,0,0,1.307,1.343,1.31,1.31,0,0,0,1.279-1.378,1.3,1.3,0,1,0-2.585.035" transform="translate(-783.782 -1902.927)" fill="#fff"/>
    <rect id="Rectangle_4154" data-name="Rectangle 4154" width="0.32" height="5.859" transform="translate(125.422 30.525)" fill="#fff"/>
    <path id="Path_59794" data-name="Path 59794" d="M939.381,1939.312h-.32v-.589h-.015a1.467,1.467,0,0,1-1.249.66,1.616,1.616,0,0,1-1.619-1.733,1.574,1.574,0,0,1,1.6-1.69,1.51,1.51,0,0,1,1.264.639h.015v-.568h.32Zm-2.883-1.662a1.34,1.34,0,0,0,1.293,1.434,1.326,1.326,0,0,0,1.292-1.47,1.286,1.286,0,0,0-1.313-1.356,1.339,1.339,0,0,0-1.271,1.392" transform="translate(-809.663 -1902.927)" fill="#fff"/>
    <path id="Path_59795" data-name="Path 59795" d="M963.286,1936.79a1.514,1.514,0,0,0-1.157-.532,1.415,1.415,0,0,0-.008,2.826,1.58,1.58,0,0,0,1.208-.589v.433a1.812,1.812,0,0,1-1.193.455,1.711,1.711,0,0,1,.007-3.423,1.719,1.719,0,0,1,1.143.4Z" transform="translate(-829.963 -1902.927)" fill="#fff"/>
    <path id="Path_59796" data-name="Path 59796" d="M981.45,1937.7a1.28,1.28,0,0,0,1.313,1.385,1.313,1.313,0,0,0,1.158-.746l.27.156a1.917,1.917,0,1,1,.107-.8Zm2.529-.3a1.271,1.271,0,0,0-2.529,0Z" transform="translate(-847.253 -1902.927)" fill="#fff"/>
    <g id="App_Icon" data-name="App Icon">
      <path id="Union_4" data-name="Union 4" d="M10.517,41.185A10.548,10.548,0,0,1,0,30.63V0H7.328V30.63a3.2,3.2,0,0,0,3.189,3.2h3.407v-12.5h8.427v12.5h5.13v7.354Z" transform="translate(0)" fill="#fff" stroke="rgba(0,0,0,0)" stroke-miterlimit="10" stroke-width="1"/>
      <path id="Path_59798" data-name="Path 59798" d="M310.147,1790.793h-7.328v-16.122a5.869,5.869,0,0,0-5.863-5.863v-7.328a13.206,13.206,0,0,1,13.191,13.191Z" transform="translate(-275.166 -1757.169)" fill="#fff"/>
      <rect id="Rectangle_4155" data-name="Rectangle 4155" width="6.126" height="7.328" transform="translate(15.663 4.311)" fill="#fff"/>
    </g>
    <path id="Path_59799" data-name="Path 59799" d="M439.295,1798.691v-6.263h1.937v15.533h-1.937V1800.5h-7.4v7.458h-1.936v-15.533H431.9v6.263Z" transform="translate(-386.378 -1782.995)" fill="#fff"/>
  </g>
</svg>
