<svg xmlns="http://www.w3.org/2000/svg" width="18" height="17" viewBox="0 0 18 17">
    <defs>
        <clipPath id="prefix__clip-path">
            <path id="prefix__Rectangle_4028" d="M0 0H18V17H0z" class="prefix__cls-1" data-name="Rectangle 4028" transform="translate(.025 .198)"/>
        </clipPath>
        <style>
            .prefix__cls-1{fill:gray}
        </style>
    </defs>
    <g id="prefix__Mask_Group_41" clip-path="url(#prefix__clip-path)" data-name="Mask Group 41" transform="translate(-.025 -.198)">
        <g id="prefix__Layer_2" data-name="Layer 2">
            <g id="prefix__message-circle">
                <circle id="prefix__Ellipse_54" cx=".734" cy=".734" r=".734" class="prefix__cls-1" data-name="Ellipse 54" transform="translate(8.07 8.07)"/>
                <circle id="prefix__Ellipse_55" cx=".734" cy=".734" r=".734" class="prefix__cls-1" data-name="Ellipse 55" transform="translate(11.005 8.07)"/>
                <circle id="prefix__Ellipse_56" cx=".734" cy=".734" r=".734" class="prefix__cls-1" data-name="Ellipse 56" transform="translate(5.135 8.07)"/>
                <path id="prefix__Path_59575" d="M13.694 3.32A7.336 7.336 0 0 0 1.75 11.39a.778.778 0 0 1 .066.47l-.646 3.1a.729.729 0 0 0 .734.88h.147l3.14-.631a.924.924 0 0 1 .47.066A7.336 7.336 0 0 0 13.73 3.334zm.606 6.133a5.869 5.869 0 0 1-8.07 4.461 2.392 2.392 0 0 0-.917-.191 2.516 2.516 0 0 0-.411.037l-2.069.418.418-2.069a2.267 2.267 0 0 0-.151-1.328 5.87 5.87 0 1 1 11.2-1.328z" class="prefix__cls-1" data-name="Path 59575" transform="translate(.297 .297)"/>
            </g>
        </g>
    </g>
</svg>
