<svg xmlns="http://www.w3.org/2000/svg" width="18" height="18" viewBox="0 0 18 18">
    <defs>
        <clipPath id="prefix__clip-path">
            <path id="prefix__Rectangle_4033" fill="#e1e1e1" d="M0 0H18V18H0z" data-name="Rectangle 4033"/>
        </clipPath>
    </defs>
    <g id="prefix__Mask_Group_46" clip-path="url(#prefix__clip-path)" data-name="Mask Group 46">
        <g id="prefix__contract" transform="translate(.001)">
            <g id="prefix__Group_61725" data-name="Group 61725">
                <g id="prefix__Group_61724" data-name="Group 61724">
                    <path id="prefix__Path_59581" d="M17.535 5.665a1.584 1.584 0 0 0-2.238 0l-1.586 1.588V3.074a1.572 1.572 0 0 0-.463-1.119L11.757.463A1.572 1.572 0 0 0 10.638 0H1.583A1.584 1.584 0 0 0 0 1.582v14.836A1.584 1.584 0 0 0 1.583 18h10.546a1.584 1.584 0 0 0 1.582-1.582v-4.689L17.535 7.9a1.581 1.581 0 0 0 0-2.235zm-6.988-4.61a.576.576 0 0 1 .463.154L12.5 2.7a.576.576 0 0 1 .154.463h-2.107zm2.109 15.363a.528.528 0 0 1-.527.527H1.583a.528.528 0 0 1-.527-.527V1.582a.528.528 0 0 1 .527-.527h7.91v2.636a.527.527 0 0 0 .527.527h2.637v4.09L11.1 9.865l-.745.745a.527.527 0 0 0-.127.206l-.746 2.237a.527.527 0 0 0 .667.667l2.237-.746a.527.527 0 0 0 .206-.127l.064-.064v3.634zm-1.183-5.434l.746.746-.285.285-1.119.373.373-1.119zm1.491 0l-.746-.746L14.755 7.7l.746.746zm3.826-3.828l-.544.544-.746-.745.544-.544a.527.527 0 1 1 .746.746z" data-name="Path 59581"/>
                </g>
            </g>
            <g id="prefix__Group_61727" data-name="Group 61727" transform="translate(2.109 5.273)">
                <g id="prefix__Group_61726" data-name="Group 61726">
                    <path id="prefix__Path_59582" d="M9.551 4.1H2.168a.527.527 0 0 0 0 1.055h7.383a.527.527 0 1 0 0-1.055z" data-name="Path 59582" transform="translate(-1.641 -4.102)"/>
                </g>
            </g>
            <g id="prefix__Group_61729" data-name="Group 61729" transform="translate(2.109 7.383)">
                <g id="prefix__Group_61728" data-name="Group 61728">
                    <path id="prefix__Path_59583" d="M7.442 5.742H2.168a.527.527 0 0 0 0 1.055h5.274a.527.527 0 0 0 0-1.055z" data-name="Path 59583" transform="translate(-1.641 -5.742)"/>
                </g>
            </g>
            <g id="prefix__Group_61731" data-name="Group 61731" transform="translate(2.109 9.492)">
                <g id="prefix__Group_61730" data-name="Group 61730">
                    <path id="prefix__Path_59584" d="M7.442 7.383H2.168a.527.527 0 0 0 0 1.055h5.274a.527.527 0 0 0 0-1.055z" data-name="Path 59584" transform="translate(-1.641 -7.383)"/>
                </g>
            </g>
            <g id="prefix__Group_61733" data-name="Group 61733" transform="translate(2.109 11.602)">
                <g id="prefix__Group_61732" data-name="Group 61732">
                    <path id="prefix__Path_59585" d="M7.442 9.023H2.168a.527.527 0 0 0 0 1.055h5.274a.527.527 0 0 0 0-1.055z" data-name="Path 59585" transform="translate(-1.641 -9.023)"/>
                </g>
            </g>
            <g id="prefix__Group_61735" data-name="Group 61735" transform="translate(6.328 14.836)">
                <g id="prefix__Group_61734" data-name="Group 61734">
                    <path id="prefix__Path_59586" d="M8.614 11.539H5.45a.527.527 0 0 0 0 1.055h3.164a.527.527 0 0 0 0-1.055z" data-name="Path 59586" transform="translate(-4.922 -11.539)"/>
                </g>
            </g>
        </g>
    </g>
</svg>
